<svg width="42" height="41" viewBox="0 0 42 41" fill="none" xmlns="http://www.w3.org/2000/svg">
<path d="M21 41C32.598 41 42 31.8218 42 20.5C42 9.17816 32.598 0 21 0C9.40202 0 0 9.17816 0 20.5C0 31.8218 9.40202 41 21 41Z" fill="#E2F3FB"/>
<path fill-rule="evenodd" clip-rule="evenodd" d="M7.07574 31.7967C9.2189 29.0856 12.8899 27.0651 17.2605 26.3234C14.2455 24.9538 12.1554 21.9702 12.1554 18.51C12.1554 13.753 16.1057 9.8967 20.9787 9.8967C25.8517 9.8967 29.802 13.753 29.802 18.51C29.802 21.9702 27.7118 24.954 24.6965 26.3236C29.0799 27.0675 32.7595 29.0979 34.8997 31.8213C31.5789 35.703 26.5839 38.1726 20.9983 38.1726C15.4007 38.1726 10.3965 35.6926 7.07574 31.7967Z" fill="#B1D0E4"/>
</svg>
